<svg width="78" height="69" viewBox="0 0 78 69" fill="none" xmlns="http://www.w3.org/2000/svg">
<path d="M14.3095 15.0511L22.0326 23.3841C16.7055 25.7308 11.9357 29.2986 7.7231 34.0877C7.36648 34.4948 6.94299 34.7103 6.45264 34.7342C5.98457 34.7342 5.57222 34.5307 5.2156 34.1236L0.5015 29.0592C0.189456 28.7 0.0222889 28.3169 0 27.9098C0 27.4788 0.133733 27.0837 0.4012 26.7245C2.18431 24.4497 4.24604 22.3305 6.58637 20.367C8.94899 18.3795 11.5234 16.6076 14.3095 15.0511ZM38.0806 19.9001L28.5186 9.59161C30.3686 9.20848 32.1517 8.92114 33.868 8.72957C35.6065 8.53801 37.3116 8.44223 38.9833 8.44223C44.1766 8.44223 49.2027 9.23243 54.0617 10.8128C58.943 12.3932 63.4008 14.5722 67.4351 17.3499C71.4694 20.1036 74.8573 23.2285 77.5988 26.7245C77.8663 27.0837 78 27.4788 78 27.9098C78 28.3169 77.8217 28.7 77.4651 29.0592L72.7844 34.0877C72.4278 34.4948 72.0154 34.7103 71.5474 34.7342C71.0793 34.7342 70.6781 34.5546 70.3438 34.1954C66.2426 29.6458 61.5954 26.1378 56.4021 23.6715C51.231 21.2051 45.5362 19.9001 39.3176 19.7564C39.117 19.7564 38.9053 19.7684 38.6824 19.7923C38.4818 19.8163 38.2812 19.8522 38.0806 19.9001ZM29.321 31.1424L38.3815 40.9121C36.2417 40.96 34.1577 41.3312 32.1294 42.0256C30.1012 42.72 28.1955 43.6658 26.4123 44.8631C24.6515 46.0364 23.1024 47.4013 21.7651 48.9577C21.3862 49.3888 20.9627 49.6282 20.4946 49.6761C20.0266 49.7001 19.5919 49.5085 19.1907 49.1014L13.9417 43.57C13.6297 43.2348 13.4514 42.8637 13.4068 42.4566C13.3845 42.0495 13.5182 41.6664 13.808 41.3072C15.5911 39.0564 17.8088 37.0449 20.4612 35.273C23.1359 33.4771 26.0892 32.1002 29.321 31.1424ZM62.0857 45.6892L48.5452 31.1424C51.7102 32.0044 54.6858 33.3454 57.4719 35.1652C60.258 36.9851 62.5092 39.0324 64.2255 41.3072C64.4706 41.6664 64.5821 42.0495 64.5598 42.4566C64.5598 42.8637 64.3926 43.2348 64.0583 43.57L62.0857 45.6892ZM39.0167 50.6818C41.3793 50.6818 43.5525 51.2445 45.5362 52.37C47.5199 53.4954 49.0913 54.8483 50.2503 56.4287C50.5178 56.7879 50.6292 57.183 50.5847 57.614C50.5401 58.045 50.3618 58.4162 50.0497 58.7275L41.892 67.2041C41.2233 67.8985 40.6772 68.3654 40.2537 68.6049C39.8526 68.8683 39.4402 69 39.0167 69C38.6155 69 38.2143 68.8683 37.8131 68.6049C37.4119 68.3654 36.8658 67.8985 36.1749 67.2041L27.9837 58.7275C27.694 58.4401 27.5045 58.1168 27.4153 57.7577C27.3485 57.3745 27.4153 57.0273 27.6159 56.716C28.775 55.0399 30.3686 53.6151 32.3969 52.4418C34.4252 51.2685 36.6318 50.6818 39.0167 50.6818ZM67.2345 65.48L10.7655 4.85043C10.2529 4.32363 9.99657 3.65316 9.99657 2.83902C9.99657 2.02488 10.2529 1.34244 10.7655 0.791693C11.2559 0.24095 11.88 -0.0224488 12.6378 0.00149658C13.3956 0.00149658 14.0309 0.276868 14.5435 0.827611L70.979 61.4572C71.5139 62.008 71.7814 62.6784 71.7814 63.4686C71.7814 64.2588 71.5139 64.9293 70.979 65.48C70.4886 66.0308 69.8757 66.3062 69.1402 66.3062C68.4046 66.3062 67.7694 66.0308 67.2345 65.48Z" fill="#F1F1F1"/>
</svg>
