<svg width="78" height="56" viewBox="0 0 78 56" fill="none" xmlns="http://www.w3.org/2000/svg">
<path d="M38.9833 56C38.5817 56 38.1691 55.8782 37.7453 55.6346C37.3437 55.4132 36.8084 54.9814 36.1392 54.3393L27.9415 46.5006C27.6515 46.2349 27.4731 45.9359 27.4062 45.6038C27.3393 45.2495 27.395 44.9284 27.5735 44.6406C28.7334 43.0906 30.3283 41.773 32.3582 40.688C34.3881 39.603 36.5965 39.0605 38.9833 39.0605C41.3478 39.0605 43.5227 39.5809 45.5079 40.6216C47.5155 41.6623 49.0993 42.9134 50.2592 44.3749C50.5269 44.707 50.6273 45.0724 50.5604 45.4709C50.5158 45.8695 50.3485 46.2127 50.0585 46.5006L41.8608 54.3393C41.1916 55.0036 40.6451 55.4464 40.2213 55.6679C39.8198 55.8893 39.4071 56 38.9833 56ZM19.1416 37.6323L13.8884 32.484C13.5761 32.174 13.4088 31.8308 13.3865 31.4543C13.3642 31.0779 13.498 30.7236 13.788 30.3915C15.5279 28.31 17.6917 26.4611 20.2792 24.8446C22.8668 23.206 25.7555 21.9217 28.9453 20.9917C32.1575 20.0617 35.5034 19.5967 38.9833 19.5967C42.4854 19.5967 45.8314 20.0617 49.0212 20.9917C52.2111 21.9217 55.1109 23.206 57.7208 24.8446C60.3306 26.4611 62.4944 28.31 64.212 30.3915C64.4797 30.7236 64.6023 31.089 64.58 31.4875C64.5577 31.864 64.3904 32.1961 64.0781 32.484L58.8249 37.5991C58.4234 37.9755 57.9996 38.1637 57.5535 38.1637C57.1073 38.1637 56.717 37.9755 56.3824 37.5991C54.2856 35.3847 51.698 33.5579 48.6197 32.1186C45.5414 30.6793 42.3293 29.9707 38.9833 29.9929C35.6819 29.9707 32.4921 30.6682 29.4138 32.0854C26.3578 33.4804 23.8037 35.2851 21.7515 37.4994C21.3722 37.898 20.9373 38.1194 20.4465 38.1637C19.9781 38.1858 19.5431 38.0087 19.1416 37.6323ZM5.15539 23.8149L0.471011 19.0652C0.181026 18.7331 0.0248804 18.3788 0.00257383 18.0024C-0.0197327 17.6038 0.102953 17.2384 0.370632 16.9063C3.04742 13.6291 6.40455 10.7173 10.442 8.17082C14.5018 5.60221 18.9743 3.59826 23.8594 2.15896C28.7446 0.719652 33.7858 0 38.9833 0C44.1807 0 49.222 0.730724 54.1071 2.19217C58.9922 3.63147 63.4647 5.62436 67.5245 8.17082C71.5843 10.7173 74.9526 13.6291 77.6294 16.9063C77.897 17.2384 78.0197 17.6038 77.9974 18.0024C77.9974 18.3788 77.8301 18.7331 77.4955 19.0652L72.8112 23.7153C72.4543 24.0917 72.0416 24.291 71.5731 24.3132C71.1047 24.3132 70.7032 24.1471 70.3686 23.8149C66.2419 19.4527 61.5129 16.1423 56.1816 13.8837C50.8504 11.603 45.1176 10.4626 38.9833 10.4626C32.9159 10.4626 27.2166 11.5919 21.8853 13.8505C16.554 16.1091 11.825 19.4085 7.69833 23.7485C7.34143 24.125 6.9176 24.3242 6.42686 24.3464C5.95842 24.3464 5.5346 24.1692 5.15539 23.8149Z" fill="#F1F1F1"/>
</svg>
